<mxfile host="app.diagrams.net" agent="Mozilla/5.0 (Windows NT 10.0; Win64; x64) AppleWebKit/537.36 (KHTML, like Gecko) Chrome/126.0.0.0 Safari/537.36 Avast/126.0.0.0" version="28.2.0">
  <diagram name="Page-1" id="MJIfw9Xfixav2o8gxMMa">
    <mxGraphModel dx="1506" dy="1131" grid="1" gridSize="10" guides="1" tooltips="1" connect="1" arrows="1" fold="1" page="1" pageScale="1" pageWidth="1100" pageHeight="850" math="0" shadow="0">
      <root>
        <mxCell id="0" />
        <mxCell id="1" parent="0" />
        <mxCell id="7YQjvosz25pRn5sGRjC9-1" value="" style="rounded=0;whiteSpace=wrap;html=1;fillColor=light-dark(#FFFFFF,#FFFFFF);movable=0;resizable=0;rotatable=0;deletable=0;editable=0;locked=1;connectable=0;" parent="1" vertex="1">
          <mxGeometry x="40" y="40" width="1040" height="770" as="geometry" />
        </mxCell>
        <mxCell id="7YQjvosz25pRn5sGRjC9-2" value="" style="rounded=0;whiteSpace=wrap;html=1;fillColor=light-dark(#000000,#D5FFB7);" parent="1" vertex="1">
          <mxGeometry x="40" y="60" width="200" height="750" as="geometry" />
        </mxCell>
        <mxCell id="7YQjvosz25pRn5sGRjC9-3" value="" style="rounded=0;whiteSpace=wrap;html=1;fillColor=light-dark(#FFFFFF,#FFFFFF);" parent="1" vertex="1">
          <mxGeometry x="50" y="80" width="170" height="100" as="geometry" />
        </mxCell>
        <mxCell id="7YQjvosz25pRn5sGRjC9-4" value="" style="shape=umlDestroy;whiteSpace=wrap;html=1;strokeWidth=1;targetShapes=umlLifeline;fillColor=default;strokeColor=light-dark(#000000,#000000);" parent="1" vertex="1">
          <mxGeometry x="50" y="80" width="170" height="100" as="geometry" />
        </mxCell>
        <mxCell id="7YQjvosz25pRn5sGRjC9-5" value="Logo" style="text;html=1;align=center;verticalAlign=middle;whiteSpace=wrap;rounded=0;fontColor=light-dark(#000000,#000000);fontSize=15;" parent="1" vertex="1">
          <mxGeometry x="105" y="90" width="60" height="30" as="geometry" />
        </mxCell>
        <mxCell id="7YQjvosz25pRn5sGRjC9-7" value="&lt;b&gt;Home&lt;/b&gt;" style="text;html=1;align=left;verticalAlign=middle;whiteSpace=wrap;rounded=0;fontColor=light-dark(#000000,#000000);fontSize=17;" parent="1" vertex="1">
          <mxGeometry x="51" y="209.5" width="80" height="30" as="geometry" />
        </mxCell>
        <mxCell id="7YQjvosz25pRn5sGRjC9-8" value="&lt;b&gt;Service&lt;/b&gt;" style="text;html=1;align=left;verticalAlign=middle;whiteSpace=wrap;rounded=0;fontColor=light-dark(#000000,#000000);fontSize=17;" parent="1" vertex="1">
          <mxGeometry x="54" y="248" width="80" height="30" as="geometry" />
        </mxCell>
        <mxCell id="7YQjvosz25pRn5sGRjC9-9" value="&lt;b&gt;Therapists&lt;/b&gt;" style="text;html=1;align=left;verticalAlign=middle;whiteSpace=wrap;rounded=0;fontColor=light-dark(#000000,#000000);fontSize=17;" parent="1" vertex="1">
          <mxGeometry x="51" y="348" width="119" height="30" as="geometry" />
        </mxCell>
        <mxCell id="7YQjvosz25pRn5sGRjC9-10" value="&lt;b&gt;Ayurvedic Therapy&lt;/b&gt;" style="text;html=1;align=left;verticalAlign=middle;whiteSpace=wrap;rounded=0;fontColor=light-dark(#000000,#000000);fontSize=17;" parent="1" vertex="1">
          <mxGeometry x="71" y="278" width="169" height="30" as="geometry" />
        </mxCell>
        <mxCell id="7YQjvosz25pRn5sGRjC9-11" value="&lt;b&gt;Yoga &amp;amp; Meditation&lt;/b&gt;" style="text;html=1;align=left;verticalAlign=middle;whiteSpace=wrap;rounded=0;fontColor=light-dark(#000000,#000000);fontSize=17;" parent="1" vertex="1">
          <mxGeometry x="71" y="312" width="159" height="30" as="geometry" />
        </mxCell>
        <mxCell id="7YQjvosz25pRn5sGRjC9-12" value="&lt;b&gt;Contact Us&lt;/b&gt;" style="text;html=1;align=left;verticalAlign=middle;whiteSpace=wrap;rounded=0;fontColor=light-dark(#000000,#000000);fontSize=17;" parent="1" vertex="1">
          <mxGeometry x="51" y="578" width="120" height="30" as="geometry" />
        </mxCell>
        <mxCell id="7YQjvosz25pRn5sGRjC9-27" value="&lt;b&gt;About&lt;/b&gt;" style="text;html=1;align=left;verticalAlign=middle;whiteSpace=wrap;rounded=0;fontColor=light-dark(#000000,#000000);fontSize=17;" parent="1" vertex="1">
          <mxGeometry x="54" y="540" width="80" height="30" as="geometry" />
        </mxCell>
        <mxCell id="7YQjvosz25pRn5sGRjC9-28" value="&lt;b&gt;Register / Login&lt;/b&gt;" style="text;html=1;align=left;verticalAlign=middle;whiteSpace=wrap;rounded=0;fontColor=light-dark(#000000,#000000);fontSize=17;" parent="1" vertex="1">
          <mxGeometry x="51" y="618.5" width="189" height="30" as="geometry" />
        </mxCell>
        <mxCell id="7YQjvosz25pRn5sGRjC9-29" value="&lt;b&gt;Book Appointment&lt;/b&gt;" style="text;html=1;align=left;verticalAlign=middle;whiteSpace=wrap;rounded=0;fontColor=light-dark(#000000,#000000);fontSize=17;" parent="1" vertex="1">
          <mxGeometry x="52" y="386.5" width="178" height="30" as="geometry" />
        </mxCell>
        <mxCell id="7YQjvosz25pRn5sGRjC9-32" value="&lt;b&gt;Client Dashboard&lt;/b&gt;" style="text;html=1;align=left;verticalAlign=middle;whiteSpace=wrap;rounded=0;fontColor=light-dark(#000000,#000000);fontSize=17;" parent="1" vertex="1">
          <mxGeometry x="51" y="423.5" width="166" height="30" as="geometry" />
        </mxCell>
        <mxCell id="7YQjvosz25pRn5sGRjC9-33" value="&lt;b&gt;Therapist Dashboard&lt;/b&gt;" style="text;html=1;align=left;verticalAlign=middle;whiteSpace=wrap;rounded=0;fontColor=light-dark(#000000,#000000);fontSize=17;" parent="1" vertex="1">
          <mxGeometry x="51" y="463.5" width="199" height="30" as="geometry" />
        </mxCell>
        <mxCell id="7YQjvosz25pRn5sGRjC9-34" value="&lt;b&gt;Admin Dashboard&lt;/b&gt;" style="text;html=1;align=left;verticalAlign=middle;whiteSpace=wrap;rounded=0;fontColor=light-dark(#000000,#000000);fontSize=17;" parent="1" vertex="1">
          <mxGeometry x="51.5" y="503.5" width="176" height="30" as="geometry" />
        </mxCell>
        <mxCell id="c9pFDxgWKYqPfjZnPTOq-1" value="" style="edgeStyle=orthogonalEdgeStyle;rounded=0;orthogonalLoop=1;jettySize=auto;html=1;" parent="1" edge="1">
          <mxGeometry relative="1" as="geometry">
            <mxPoint x="415" y="274" as="targetPoint" />
          </mxGeometry>
        </mxCell>
      </root>
    </mxGraphModel>
  </diagram>
</mxfile>
